<?xml version="1.0" encoding="iso-8859-1"?>
<!-- Generator: Adobe Illustrator 19.0.0, SVG Export Plug-In . SVG Version: 6.00 Build 0)  -->
<svg version="1.1" id="Capa_1" xmlns="http://www.w3.org/2000/svg" xmlns:xlink="http://www.w3.org/1999/xlink" x="0px" y="0px"
	 viewBox="0 0 512 512" style="enable-background:new 0 0 512 512;" xml:space="preserve">
<g>
	<rect x="185.379" y="418.957" style="fill:#95A5A5;" width="141.241" height="80.066"/>
	<path style="fill:#BDC3C7;" d="M476.69,79.448H35.31c-9.366-0.003-18.349,3.717-24.971,10.339S-0.003,105.393,0,114.759v291.31
		c-0.003,9.366,3.717,18.348,10.339,24.971c6.623,6.622,15.605,10.342,24.971,10.339H476.69c9.366,0.003,18.348-3.717,24.971-10.339
		c6.622-6.623,10.342-15.605,10.339-24.971v-291.31c0.003-9.366-3.717-18.349-10.339-24.971
		C495.038,83.165,486.055,79.446,476.69,79.448z"/>
	<path style="fill:#35495E;" d="M512,370.759v-256c0.003-9.366-3.717-18.348-10.339-24.971
		c-6.623-6.623-15.605-10.342-24.971-10.339H35.31c-9.366-0.003-18.348,3.717-24.971,10.339S-0.003,105.393,0,114.759l0,256H512z"/>
	<rect x="229.517" y="236.871" style="fill:#B19046;" width="52.966" height="71.971"/>
	<path style="fill:#BDC3C7;" d="M123.586,476.69h264.828c4.875,0,8.828,3.952,8.828,8.828v17.655c0,4.875-3.952,8.828-8.828,8.828
		H123.586c-4.875,0-8.828-3.952-8.828-8.828v-17.655C114.759,480.642,118.711,476.69,123.586,476.69z"/>
	<g>
		<path style="fill:#E4C05C;" d="M388.414,0v150.069c0,0,0,105.931-132.414,105.931S123.586,150.069,123.586,150.069V0H388.414z"/>
		<path style="fill:#E4C05C;" d="M203.034,291.31h105.931c9.751,0,17.655,7.905,17.655,17.655v61.793H185.379v-61.793
			C185.379,299.215,193.284,291.31,203.034,291.31z"/>
	</g>
	<g>
		<path style="fill:#B19046;" d="M282.483,335.448h-52.966c-4.875,0-8.828-3.952-8.828-8.828s3.952-8.828,8.828-8.828h52.966
			c4.875,0,8.828,3.952,8.828,8.828S287.358,335.448,282.483,335.448z"/>
		<path style="fill:#B19046;" d="M125.881,167.371c-54.184-5.506-62.917-79.033-63.993-113.924c-0.14-4.768,1.66-9.389,4.987-12.807
			c3.327-3.418,7.898-5.341,12.668-5.33h44.043"/>
		<path style="fill:#B19046;" d="M388.414,35.31h44.043c4.77-0.011,9.341,1.912,12.668,5.33c3.327,3.418,5.126,8.039,4.987,12.807
			c-1.076,34.89-9.809,108.418-63.993,113.924"/>
	</g>
	<polygon style="fill:#F9EAB0;" points="256,39.406 280.55,87.455 335.448,95.161 295.724,132.564 305.099,185.379 256,160.441 
		206.901,185.379 216.276,132.564 176.552,95.161 231.45,87.455 	"/>
	<g>
		<path style="fill:#B0D3F0;" d="M61.793,291.31H35.31c-4.875,0-8.828-3.952-8.828-8.828s3.952-8.828,8.828-8.828h26.483
			c4.875,0,8.828,3.952,8.828,8.828S66.668,291.31,61.793,291.31z"/>
		<path style="fill:#B0D3F0;" d="M44.138,326.621H35.31c-4.875,0-8.828-3.952-8.828-8.828s3.952-8.828,8.828-8.828h8.828
			c4.875,0,8.828,3.952,8.828,8.828S49.013,326.621,44.138,326.621z"/>
		<path style="fill:#B0D3F0;" d="M150.069,326.621H79.448c-4.875,0-8.828-3.952-8.828-8.828s3.952-8.828,8.828-8.828h70.621
			c4.875,0,8.828,3.952,8.828,8.828S154.944,326.621,150.069,326.621z"/>
		<path style="fill:#B0D3F0;" d="M123.586,291.31H97.103c-4.875,0-8.828-3.952-8.828-8.828s3.952-8.828,8.828-8.828h26.483
			c4.875,0,8.828,3.952,8.828,8.828S128.462,291.31,123.586,291.31z"/>
		<path style="fill:#B0D3F0;" d="M476.69,291.31h-26.483c-4.875,0-8.828-3.952-8.828-8.828s3.952-8.828,8.828-8.828h26.483
			c4.875,0,8.828,3.952,8.828,8.828S481.565,291.31,476.69,291.31z"/>
		<path style="fill:#B0D3F0;" d="M476.69,326.621h-8.828c-4.875,0-8.828-3.952-8.828-8.828s3.952-8.828,8.828-8.828h8.828
			c4.875,0,8.828,3.952,8.828,8.828S481.565,326.621,476.69,326.621z"/>
		<path style="fill:#B0D3F0;" d="M432.552,326.621h-70.621c-4.875,0-8.828-3.952-8.828-8.828s3.952-8.828,8.828-8.828h70.621
			c4.875,0,8.828,3.952,8.828,8.828S437.427,326.621,432.552,326.621z"/>
		<path style="fill:#B0D3F0;" d="M414.897,291.31h-26.483c-4.875,0-8.828-3.952-8.828-8.828s3.952-8.828,8.828-8.828h26.483
			c4.875,0,8.828,3.952,8.828,8.828S419.772,291.31,414.897,291.31z"/>
	</g>
</g>
<g>
</g>
<g>
</g>
<g>
</g>
<g>
</g>
<g>
</g>
<g>
</g>
<g>
</g>
<g>
</g>
<g>
</g>
<g>
</g>
<g>
</g>
<g>
</g>
<g>
</g>
<g>
</g>
<g>
</g>
</svg>
